<svg width="1969" height="1273" viewBox="0 0 1969 1273" fill="none" xmlns="http://www.w3.org/2000/svg">
<path d="M291 519C289.8 519.8 288.5 519.333 288 519V523.5L291 527L294.5 532L292.5 537L296.5 539L303 540.5L305 543.5V546.5L304 552L309 553L313 555L316.5 558.5L319 562L323 560L327 562L331 566.5L332.5 571.5L331 579L333.5 583L338 587L341 586L346.5 583L352.5 585L358 586L362 584L367 588L369.5 595L375.5 596.5L378.5 599L385 607.5V612L388.5 615L395 619L401.5 622.5L411 620L417.5 622.5L420 620L422 612V604.5H426.5H434L439.5 599L437 596.5L435 592L430.5 586.5L425.5 584H421L417.5 579L413.5 570L409 571.5H403L399 564L396 556.5L390.5 553L380 550.5L373 545V542L363.5 535.5L360 529L355.5 519V511L363.5 501.5L357 489L351.5 490L347.5 489L338 490L334.5 489L323 496L317.5 497.5L313 504L306.5 511L296.5 514C295.167 515.333 292.2 518.2 291 519Z" fill="#07398A" stroke="#0D7DDB"/>
</svg>
