<svg width="1969" height="1273" viewBox="0 0 1969 1273" fill="none" xmlns="http://www.w3.org/2000/svg">
<path d="M231.5 443.5V438.5L236 437L239.5 433.5L244.5 432.5H249L252.5 437L258 439.5L262 435L260.5 430H265.5L270 425.5L273 420.5L268.5 417L262 414.5L267.5 411H270L276.5 414.5L279 413.5L283 414.5L284 418L289.5 419.5L290.5 425.5L292 430V433.5L293.5 436V439.5L295 445.5L296 454L305.5 475L311 481V491.5L313.5 495L305.5 506L295 511L289.5 513.5V506L284 499.5L285.5 497L284 490L278 485.5L274 487L273 476.5L268.5 471L259.5 473.5L251 469.5L249 471L237.5 465L232.5 464L235 460L236 452.5L232.5 447.5L231.5 443.5Z" fill="#07398A"/>
</svg>
