<svg width="1969" height="1273" viewBox="0 0 1969 1273" fill="none" xmlns="http://www.w3.org/2000/svg">
<path d="M421 332L416.5 337L425 347V353.5V366L430 367.5L437.5 371L441.5 361L445 353.5L448 353L450 359.5L448 367L445 375L445.5 386L451 394.5V403L457.5 414L462.5 428L467 433.5L477 437H486L490.5 435.5L495.5 438.5L502.5 435.5L506.5 433.5L509.5 427L513 420.5L517 414L518 387.5L514.5 381.5V351.5V342L510.5 337.5L508.5 333.5L503.5 324V320.5L506 315.5H509.5V312.5L507.5 306.5L503.5 301.5L495.5 302.5L489.5 301L481.5 294.5L476 295L468.5 297L460 296L456.5 301L448 306.5L440.5 307.5L441 316.5L440.5 322.5L437.5 325.5L427 324.5H421.5L421 332Z" fill="#07398A" stroke="#0D7DDB"/>
</svg>
